<svg xmlns="http://www.w3.org/2000/svg" viewBox="0 0 286 120"><path fill="currentColor" d="M256,90a30,30,0,1,1,30-30A30,30,0,0,1,256,90Zm0-50a20,20,0,1,0,20,20A20,20,0,0,0,256,40ZM205,30v7.664a30,30,0,1,0,0,44.673V90a19.99,19.99,0,0,1-35.7,12.372l-9.349,4.114A29.99,29.99,0,0,0,215,90V30ZM185,80a20,20,0,1,1,20-20A20,20,0,0,1,185,80ZM139,8.358A5.642,5.642,0,1,1,133.358,14,5.642,5.642,0,0,1,139,8.358ZM134,30h10V90H134Zm-23.731,0L93,51.921,75.731,30H63L86.635,60,63,90H75.731L93,68.08,110.269,90H123L99.365,60,123,30H110.269ZM2.541,72.084A30,30,0,0,0,40.656,88.045h.008q.708-.27,1.41-.578c.6-.266,1.2-.556,1.778-.86.122-.063.241-.129.362-.193.557-.3,1.106-.612,1.642-.946l.037-.022a30,30,0,0,0,9.162-8.952L45.7,72.371a19.972,19.972,0,0,1-31.409.007l44.8-19.716A30,30,0,1,0,2.541,72.084ZM26.779,40.261a20,20,0,0,1,18.933,7.361l-35.453,15.6A20,20,0,0,1,26.776,40.261Z"/></svg>